<?xml version="1.0" encoding="utf-8"?>
<!-- Generator: Adobe Illustrator 24.0.0, SVG Export Plug-In . SVG Version: 6.00 Build 0)  -->
<svg version="1.1" id="Layer_1" xmlns="http://www.w3.org/2000/svg" xmlns:xlink="http://www.w3.org/1999/xlink" x="0px" y="0px"
	 viewBox="0 0 183.4 32.8" style="enable-background:new 0 0 183.4 32.8;" xml:space="preserve">
<style type="text/css">
	.st0{fill:#28FE14;}

	.blink {
		animation: blinkKeyframes 1s infinite;
	}

	@keyframes blinkKeyframes {
		0% {
			opacity: 1;
		}
		90% {
			opacity: 0;
		}
	}
</style>
<g>
	<path class="st0" d="M7.8,32.8H6.3v-4.4c-1,0-2-0.2-3-0.4s-2-0.5-2.9-0.9v-2.6c1,0.6,2,1.1,3,1.4s2,0.5,2.9,0.5v-6.7
		c-2-0.3-3.4-0.9-4.4-1.8s-1.5-2.1-1.5-3.5c0-1.5,0.5-2.8,1.5-3.7s2.5-1.4,4.3-1.6V5.7h1.5v3.4c0.8,0,1.6,0.1,2.3,0.3
		s1.6,0.3,2.4,0.6v2.5c-0.8-0.4-1.6-0.7-2.4-1s-1.6-0.4-2.4-0.4v6.3c2,0.3,3.5,0.9,4.6,1.9s1.6,2.2,1.6,3.7s-0.6,2.8-1.7,3.8
		s-2.6,1.6-4.5,1.6L7.8,32.8z M6.3,17.1v-6c-1,0-1.8,0.3-2.4,0.9S3,13.3,3,14.2c0,0.8,0.3,1.5,0.8,2C4.3,16.7,5.2,17,6.3,17.1z
		 M7.8,19.9v6.4c1.1,0,1.9-0.3,2.5-0.9s0.9-1.3,0.9-2.3c0-0.9-0.3-1.6-0.8-2.1S9,20.1,7.8,19.9z"/>
	<path class="st0" d="M21.4,22.5h5.2v5.9h-5.2C21.4,28.4,21.4,22.5,21.4,22.5z"/>
	<path class="st0" d="M46.9,6.5h3.2L38.6,31.2h-3.2L46.9,6.5z"/>
	<path class="st0" d="M66.3,12.5v3.8c-0.8-0.5-1.6-0.9-2.5-1.1s-1.7-0.4-2.6-0.4c-1,0-1.7,0.1-2.2,0.4s-0.7,0.7-0.7,1.2
		c0,0.8,1,1.4,3.1,1.9h0.2l1.2,0.3c1.6,0.4,2.7,1,3.4,1.8s1.1,1.9,1.1,3.3c0,1.7-0.6,3-1.7,3.8s-2.8,1.3-5,1.3c-1,0-2-0.1-3-0.3
		s-2.1-0.4-3.1-0.8v-3.6c0.9,0.5,1.9,0.9,2.9,1.2s1.9,0.4,2.8,0.4c1,0,1.8-0.1,2.3-0.4s0.8-0.7,0.8-1.3c0-0.5-0.2-1-0.5-1.3
		s-1.2-0.6-2.6-0.9L59,21.5c-1.6-0.4-2.8-1-3.6-1.7s-1.1-1.9-1.1-3.2c0-1.6,0.6-2.8,1.7-3.7s2.7-1.3,4.8-1.3c0.9,0,1.9,0.1,2.8,0.2
		S65.5,12.2,66.3,12.5z"/>
	<path class="st0" d="M73.1,12h8.5v13.1h5.3v3.3h-15v-3.3h5.3v-9.8H73L73.1,12L73.1,12z M77.3,4h4.3v5h-4.3V4z"/>
	<path class="st0" d="M98,13.7c0.3-0.7,0.7-1.2,1.2-1.5s1.1-0.5,1.8-0.5c1.4,0,2.4,0.5,2.9,1.5s0.8,3,0.8,6.1v9.2h-3.5V17.9
		c0-1.2-0.1-2-0.3-2.4s-0.5-0.6-1-0.6s-0.8,0.2-1,0.6s-0.3,1.2-0.3,2.4v10.5h-3.5V17.9c0-1.2-0.1-2-0.3-2.4s-0.5-0.6-1-0.6
		s-0.8,0.2-1,0.6s-0.3,1.2-0.3,2.4v10.5H89V12h3.1v1.7c0.2-0.6,0.6-1.2,1.2-1.5s1.1-0.6,1.8-0.6s1.3,0.2,1.8,0.6S97.9,13.1,98,13.7z
		"/>
	<path class="st0" d="M115.8,6.5h4.5v13.4h2.4v3.7h-2.4v4.7h-4.1v-4.7h-8.7v-4.2L115.8,6.5z M116.2,11.4l-5.5,8.6h5.5V11.4z"/>
	<path class="st0" d="M127.3,12h8.5v13.1h5.3v3.3h-15v-3.3h5.3v-9.8h-4.2L127.3,12L127.3,12z M131.5,4h4.3v5h-4.3V4z"/>
	<path class="st0" d="M159,16.5c-0.5-0.4-1-0.8-1.6-1s-1.3-0.3-2.1-0.3c-0.9,0-1.7,0.2-2.4,0.5s-1.2,0.8-1.6,1.4
		c-0.2,0.4-0.4,0.8-0.5,1.3s-0.1,1.3-0.1,2.4v7.6h-4.3V12h4.3v2.5c0.4-0.9,1.1-1.7,1.9-2.2s1.9-0.8,3-0.8c0.6,0,1.2,0.1,1.7,0.2
		s1.1,0.3,1.6,0.6v4.2H159z"/>
</g>
<rect x="164.3" y="0" class="st0 blink" width="18.5" height="32.1"/>
</svg>
