<?xml version="1.0" encoding="utf-8"?>
<!-- Generator: Adobe Illustrator 24.0.0, SVG Export Plug-In . SVG Version: 6.00 Build 0)  -->
<svg version="1.1" id="Layer_1" xmlns="http://www.w3.org/2000/svg" xmlns:xlink="http://www.w3.org/1999/xlink" x="0px" y="0px"
	 viewBox="0 0 172 70" style="enable-background:new 0 0 172 70;" xml:space="preserve">
<style type="text/css">
	.st0{fill:#28FE14;}
</style>
<rect width="172" height="70"/>
<g>
	<path class="st0" d="M14.9,46.7h-1.5l0-4.4c-1,0-2-0.2-3-0.4s-2-0.5-2.9-0.9v-2.6c1,0.6,2,1.1,3,1.4s2,0.5,2.9,0.5v-6.7
		c-2-0.3-3.4-0.9-4.4-1.8s-1.5-2.1-1.5-3.5c0-1.5,0.5-2.8,1.5-3.7s2.5-1.4,4.3-1.6v-3.4h1.5l0,3.4c0.8,0,1.6,0.1,2.3,0.3
		s1.6,0.3,2.4,0.6v2.5c-0.8-0.4-1.6-0.7-2.4-1s-1.6-0.4-2.4-0.4v6.3c2,0.3,3.5,0.9,4.6,1.9s1.6,2.2,1.6,3.7c0,1.5-0.6,2.8-1.7,3.8
		s-2.6,1.6-4.5,1.6L14.9,46.7z M13.4,31v-6c-1,0-1.8,0.3-2.4,0.9s-0.9,1.3-0.9,2.2c0,0.8,0.3,1.5,0.8,2S12.3,30.9,13.4,31z
		 M14.9,33.8v6.4c1.1,0,1.9-0.3,2.5-0.9s0.9-1.3,0.9-2.3c0-0.9-0.3-1.6-0.8-2.1S16.1,34,14.9,33.8z"/>
	<path class="st0" d="M28.5,36.4h5.2v5.9h-5.2V36.4z"/>
	<path class="st0" d="M54,20.4h3.2L45.7,45.1h-3.2L54,20.4z"/>
	<path class="st0" d="M73.4,26.4v3.8c-0.8-0.5-1.6-0.9-2.5-1.1s-1.7-0.4-2.6-0.4c-1,0-1.7,0.1-2.2,0.4s-0.7,0.7-0.7,1.2
		c0,0.8,1,1.4,3.1,1.9l0.2,0l1.2,0.3c1.6,0.4,2.7,1,3.4,1.8s1.1,1.9,1.1,3.3c0,1.7-0.6,3-1.7,3.8s-2.8,1.3-5,1.3c-1,0-2-0.1-3-0.3
		s-2.1-0.4-3.1-0.8V38c0.9,0.5,1.9,0.9,2.9,1.2s1.9,0.4,2.8,0.4c1,0,1.8-0.1,2.3-0.4s0.8-0.7,0.8-1.3c0-0.5-0.2-1-0.5-1.3
		s-1.2-0.6-2.6-0.9l-1.2-0.3c-1.6-0.4-2.8-1-3.6-1.7s-1.1-1.9-1.1-3.2c0-1.6,0.6-2.8,1.7-3.7s2.7-1.3,4.8-1.3c0.9,0,1.9,0.1,2.8,0.2
		S72.6,26.1,73.4,26.4z"/>
	<path class="st0" d="M80.2,25.9h8.5V39H94v3.3h-15V39h5.3v-9.8h-4.2V25.9z M84.4,17.9h4.3v5h-4.3V17.9z"/>
	<path class="st0" d="M105.1,27.6c0.3-0.7,0.7-1.2,1.2-1.5s1.1-0.5,1.8-0.5c1.4,0,2.4,0.5,2.9,1.5c0.5,1,0.8,3,0.8,6.1v9.2h-3.5
		V31.8c0-1.2-0.1-2-0.3-2.4s-0.5-0.6-1-0.6s-0.8,0.2-1,0.6s-0.3,1.2-0.3,2.4v10.5h-3.5V31.8c0-1.2-0.1-2-0.3-2.4s-0.5-0.6-1-0.6
		s-0.8,0.2-1,0.6s-0.3,1.2-0.3,2.4v10.5h-3.5V25.9h3.1v1.7c0.2-0.6,0.6-1.2,1.2-1.5s1.1-0.6,1.8-0.6s1.3,0.2,1.8,0.6
		S105,27,105.1,27.6z"/>
	<path class="st0" d="M122.9,20.4h4.5v13.4h2.4v3.7h-2.4v4.7h-4.1v-4.7h-8.7v-4.2L122.9,20.4z M123.3,25.3l-5.5,8.6h5.5V25.3z"/>
	<path class="st0" d="M134.4,25.9h8.5V39h5.3v3.3h-15V39h5.3v-9.8h-4.2V25.9z M138.6,17.9h4.3v5h-4.3V17.9z"/>
	<path class="st0" d="M166.1,30.4c-0.5-0.4-1-0.8-1.6-1c-0.6-0.2-1.3-0.3-2.1-0.3c-0.9,0-1.7,0.2-2.4,0.5c-0.7,0.3-1.2,0.8-1.6,1.4
		c-0.2,0.4-0.4,0.8-0.5,1.3s-0.1,1.3-0.1,2.4v7.6h-4.3V25.9h4.3v2.5c0.4-0.9,1.1-1.7,1.9-2.2s1.9-0.8,3-0.8c0.6,0,1.2,0.1,1.7,0.2
		s1.1,0.3,1.6,0.6V30.4z"/>
</g>
</svg>
